<?xml version="1.0" encoding="UTF-8" standalone="no"?>
<!-- Created with Inkscape (http://www.inkscape.org/) -->

<svg
   width="3694.5859mm"
   height="3508.5122mm"
   viewBox="0 0 3694.5859 3508.5122"
   version="1.1"
   id="svg1"
   xml:space="preserve"
   inkscape:version="1.3 (1:1.3+202307231459+0e150ed6c4)"
   sodipodi:docname="garden.svg"
   xmlns:inkscape="http://www.inkscape.org/namespaces/inkscape"
   xmlns:sodipodi="http://sodipodi.sourceforge.net/DTD/sodipodi-0.dtd"
   xmlns="http://www.w3.org/2000/svg"
   xmlns:svg="http://www.w3.org/2000/svg"><sodipodi:namedview
     id="namedview1"
     pagecolor="#505050"
     bordercolor="#eeeeee"
     borderopacity="1"
     inkscape:showpageshadow="0"
     inkscape:pageopacity="0"
     inkscape:pagecheckerboard="0"
     inkscape:deskcolor="#505050"
     inkscape:document-units="mm"
     inkscape:zoom="0.11313708"
     inkscape:cx="6416.9941"
     inkscape:cy="7292.0387"
     inkscape:window-width="1452"
     inkscape:window-height="478"
     inkscape:window-x="3220"
     inkscape:window-y="1517"
     inkscape:window-maximized="0"
     inkscape:current-layer="garden-areas" /><defs
     id="defs1" /><g
     inkscape:label="Layer 1"
     inkscape:groupmode="layer"
     id="garden-layout"
     transform="translate(-671.69335,7514.1454)"><g
       id="garden-areas"
       style="fill:#25ff88;fill-opacity:0.945882;stroke-width:4;stroke-dasharray:none"><path
         style="fill:#25ff88;fill-opacity:0.945882;stroke:#151515;stroke-width:4;stroke-linecap:square;stroke-linejoin:miter;stroke-miterlimit:2.7;stroke-dasharray:none"
         d="m 1833.4828,-6197.0194 -74.8554,301.4097 163.3736,144.3045 23.835,-29.6313 96.2177,83.1589 164.6618,-196.1537 z"
         id="path68" /><path
         style="fill:#25ff88;fill-opacity:0.945882;stroke:#151515;stroke-width:4;stroke-linecap:square;stroke-linejoin:miter;stroke-miterlimit:2.7;stroke-dasharray:none"
         d="m 1313.1379,-6617.3031 -413.27512,449.4062 194.22102,200.658 56.713,-43.8029 392.8245,351.7417 218.4413,-238.1599 83.2644,-308.586 z"
         id="path69" /><path
         style="fill:#25ff88;fill-opacity:0.945882;stroke:#151515;stroke-width:4;stroke-linecap:square;stroke-linejoin:miter;stroke-miterlimit:2.7;stroke-dasharray:none"
         d="m 2455.1303,-6395.5475 c 148.9002,-196.5934 238.4798,-349.5975 384.5106,-548.328 l -652.8968,-560.8853 -511.8693,501.5323 z"
         id="areas-0"
         sodipodi:nodetypes="ccccc" /><path
         style="fill:#25ff88;fill-opacity:0.945882;stroke:#151515;stroke-width:4;stroke-linecap:square;stroke-linejoin:miter;stroke-miterlimit:2.7;stroke-dasharray:none"
         d="m 2485.0883,-6338.3159 -28.8814,28.4112 660.916,520.6678 39.4827,-56.2428 z"
         id="areas-5" /><path
         style="fill:#25ff88;fill-opacity:0.945882;stroke:#151515;stroke-width:4;stroke-linecap:square;stroke-linejoin:miter;stroke-miterlimit:2.7;stroke-dasharray:none"
         d="m 3475.4049,-5499.8772 77.8511,-90.7029 -352.8958,-315.2489 -89.333,113.5231 z"
         id="path58" /><path
         style="fill:#25ff88;fill-opacity:0.945882;stroke:#151515;stroke-width:4;stroke-linecap:square;stroke-linejoin:miter;stroke-miterlimit:2.7;stroke-dasharray:none"
         d="m 1619.4772,-6943.8632 55.4653,-56.5973 774.7086,590.3856 -51.6952,63.2821 z"
         id="areas-4" /><path
         style="fill:#25ff88;fill-opacity:0.945882;stroke:#151515;stroke-width:4;stroke-linecap:square;stroke-linejoin:miter;stroke-miterlimit:2.7;stroke-dasharray:none"
         d="m 2589.0017,-5185.4549 -500.2801,546.9755 691.8449,590.6305 97.1078,-84.8073 -140.518,-116.7951 217.2557,-209.4055 124.1066,121.4061 237.6255,-231.8184 z"
         id="areas-fruit-trees"
         sodipodi:nodetypes="ccccccccc" /><path
         style="fill:#25ff88;fill-opacity:0.945882;stroke:#151515;stroke-width:4;stroke-linecap:square;stroke-linejoin:miter;stroke-miterlimit:2.7;stroke-dasharray:none"
         d="m 3011.9836,-4848.9728 -47.852,-22.7107 142.922,-229.205 54.4602,-94.0829 133.285,-110.0278 -73.8872,-52.7702 129.7215,-120.9419 47.8955,47.5111 -86.4905,98.7366 17.0257,112.6901 z"
         id="path63" /><path
         style="fill:#25ff88;fill-opacity:0.945882;stroke:#151515;stroke-width:4;stroke-linecap:square;stroke-linejoin:miter;stroke-miterlimit:2.7;stroke-dasharray:none"
         d="m 2047.5758,-5690.2991 162.8467,-211.184 75.9816,44.5261 205.0297,-292.7126 776.122,596.3838 -330.4616,573.3374 z"
         id="areas-3"
         sodipodi:nodetypes="ccccccc" /><path
         style="fill:#25ff88;fill-opacity:0.945882;stroke:#151515;stroke-width:4;stroke-linecap:square;stroke-linejoin:miter;stroke-miterlimit:2.7;stroke-dasharray:none"
         d="m 2062.4756,-6479.0575 -56.9397,72.8749 364.6062,286.4644 58.1637,-69.5397 z"
         id="path65" /><path
         style="fill:#25ff88;fill-opacity:0.945882;stroke:#151515;stroke-width:4;stroke-linecap:square;stroke-linejoin:miter;stroke-miterlimit:2.7;stroke-dasharray:none"
         d="m 1290.1439,-5379.5235 467.9032,-509.665 823.1153,706.3098 -482.7748,543.7718 z"
         id="areas-2" /><path
         style="fill:#25ff88;fill-opacity:0.945882;stroke:#151515;stroke-width:4;stroke-linecap:square;stroke-linejoin:miter;stroke-miterlimit:2.7;stroke-dasharray:none"
         d="m 1555.3977,-6888.0918 509.7737,406.7285 -230.4205,281.9769 -519.7789,-426.8203 z"
         id="areas-1" /><path
         style="fill:#25ff88;fill-opacity:0.945882;stroke:#151515;stroke-width:4;stroke-linecap:square;stroke-linejoin:miter;stroke-miterlimit:2.7;stroke-dasharray:none"
         d="m 677.95292,-5927.3089 116.86763,-116.8771 154.4387,205.5517 -44.72347,63.8713 410.24252,335.7635 -47.1425,71.0688 z"
         id="areas-behind-garage" /><path
         style="fill:#25ff88;fill-opacity:0.945882;stroke:#151515;stroke-width:4;stroke-linecap:square;stroke-linejoin:miter;stroke-miterlimit:2.7;stroke-dasharray:none"
         d="m 3610.3899,-5012.2959 30.6321,54.2157 722.0376,-805.0591 -64.8346,-33.3083 z"
         id="areas-wall"
         sodipodi:nodetypes="ccccc" /><path
         style="opacity:1;fill:#25ff88;fill-opacity:0.945882;stroke:#151515;stroke-width:4;stroke-linecap:square;stroke-linejoin:miter;stroke-miterlimit:2.7;stroke-dasharray:none"
         d="m 3833.4793,-5394.9492 22.3037,20.4659 -284.1106,338.3845 -29.619,-17.2538 z"
         id="areas-tarres" /></g><g
       id="garden-paths"
       style="fill:#ffffff;fill-opacity:1;stroke-width:4;stroke-dasharray:none"><path
         style="opacity:1;fill:#ffffff;fill-opacity:1;stroke:#151515;stroke-width:4;stroke-linecap:square;stroke-linejoin:miter;stroke-miterlimit:2.7;stroke-dasharray:none"
         d="m 4096.1562,-5729.1395 87.4633,73.8164 -577.9463,657.6128 -41.0056,-47.0048 305.2363,-332.6613 -43.2125,-27.1038 z"
         id="path79" /><path
         id="path55"
         style="opacity:1;fill:#ffffff;fill-opacity:1;stroke:#151515;stroke-width:4;stroke-linecap:square;stroke-linejoin:miter;stroke-miterlimit:2.7;stroke-dasharray:none"
         d="m 2909.1543,-6897.2847 -71.4158,-63.574 -440.4815,611.7954 61.3127,48.5151 z m 563.7561,1400.0188 -1860.0903,-1447.1229 -58.3967,60.6159 1860.7823,1446.5267 z"
         sodipodi:nodetypes="cccccccccc" /><path
         style="opacity:1;fill:#ffffff;fill-opacity:1;stroke:#151515;stroke-width:4;stroke-linecap:square;stroke-linejoin:miter;stroke-miterlimit:2.7;stroke-dasharray:none"
         d="m 788.82662,-6041.059 175.9507,208.3396 137.26338,-138.4424 -203.02557,-194.5063 z"
         id="path60" /><path
         style="opacity:1;fill:#ffffff;fill-opacity:1;stroke:#151515;stroke-width:4;stroke-linecap:square;stroke-linejoin:miter;stroke-miterlimit:2.7;stroke-dasharray:none"
         d="m 2910.0488,-4929.083 354.008,-608.4737 85.9891,61.3869 -125.7607,123.2683 84.4575,35.875 -151.3946,121.8917 -193.5531,320.9923 z"
         id="path62"
         sodipodi:nodetypes="cccccccc" /><path
         style="opacity:1;fill:#ffffff;fill-opacity:1;stroke:#151515;stroke-width:4;stroke-linecap:square;stroke-linejoin:miter;stroke-miterlimit:2.7;stroke-dasharray:none"
         d="m 3706.2103,-5767.9935 -384.2205,438.5841 28.8846,129.241 176.57,153.2902 441.9556,-511.7776 z"
         id="path72" /><path
         style="opacity:1;fill:#ffffff;fill-opacity:1;stroke:#151515;stroke-width:4;stroke-linecap:square;stroke-linejoin:miter;stroke-miterlimit:2.7;stroke-dasharray:none"
         d="m 2223.7769,-5903.9143 64.5291,39.3734 204.5425,-292.1903 -75.4017,-41.2267 z"
         id="path80" /></g><path
       style="opacity:1;fill:#25c1ff;fill-opacity:0.435294;stroke:none;stroke-width:4;stroke-linecap:square;stroke-linejoin:miter;stroke-miterlimit:2.7;stroke-dasharray:none;stroke-opacity:1"
       d="m 1825.7106,-6203.1285 178.9203,-209.1055 354.8764,288.5089 -161.4515,211.193 z"
       id="garden-greenhouse" /><path
       style="opacity:1;fill:#000000;fill-opacity:0.945882;stroke:#151515;stroke-width:4;stroke-linecap:square;stroke-linejoin:miter;stroke-miterlimit:2.7;stroke-dasharray:none"
       d="m 2908.699,-4940.3023 -979.8282,-802.6233 15.7045,-28.4853 985.1413,804.4096 z"
       id="garden-wall"
       sodipodi:nodetypes="ccccc" /><g
       id="garden-buildings"
       style="fill:#e50a20;fill-opacity:0.974236;stroke-width:4;stroke-dasharray:none"
       transform="translate(3.4599488,5.4459984)"><path
         style="opacity:1;fill:#e50a20;fill-opacity:0.974236;stroke:#151515;stroke-width:4;stroke-linecap:square;stroke-linejoin:miter;stroke-miterlimit:2.7;stroke-dasharray:none"
         d="m 2906.6061,-6902.0364 -412.4904,575.4798 650.6522,465.4766 214.7343,-209.0598 618.2283,510.7635 128.8494,-136.5862 54.8823,34.9667 138.4021,-151.3277 z"
         id="buildings-house"
         sodipodi:nodetypes="ccccccccc" /><path
         style="opacity:1;fill:#e50a20;fill-opacity:0.974236;stroke:#151515;stroke-width:4;stroke-linecap:square;stroke-linejoin:miter;stroke-miterlimit:2.7;stroke-dasharray:none"
         d="m 3204.9491,-5905.4223 146.1729,-155.7766 355.3872,277.3326 -145.5889,179.6679 z"
         id="buildings-serre" /><path
         style="opacity:1;fill:#e50a20;fill-opacity:0.974236;stroke:#151515;stroke-width:4;stroke-linecap:square;stroke-linejoin:miter;stroke-miterlimit:2.7;stroke-dasharray:none"
         d="m 912.96174,-5789.9453 236.17946,-229.6488 371.561,346.7592 -191.198,246.4935 z"
         id="buildings-garage" /><path
         style="opacity:1;fill:#e50a20;fill-opacity:0.974236;stroke:#151515;stroke-width:4;stroke-linecap:square;stroke-linejoin:miter;stroke-miterlimit:2.7;stroke-dasharray:none"
         d="m 3011.9445,-4840.6073 334.9222,-360.6843 313.6704,249.4991 -357.5773,396.4518 z"
         id="buildings-carport" /><path
         style="opacity:1;fill:#e50a20;fill-opacity:0.974236;stroke:#151515;stroke-width:4;stroke-linecap:square;stroke-linejoin:miter;stroke-miterlimit:2.7;stroke-dasharray:none"
         d="m 2962.2883,-4438.9317 -204.9557,176.2391 110.9998,110.1511 198.3773,-181.0984 z"
         id="building-shed" /></g></g></svg>
